<?xml version="1.0" encoding="utf-8"?>
<!-- Generator: Adobe Illustrator 20.0.0, SVG Export Plug-In . SVG Version: 6.00 Build 0)  -->
<svg version="1.1" id="Layer_1" xmlns="http://www.w3.org/2000/svg" xmlns:xlink="http://www.w3.org/1999/xlink" x="0px" y="0px"
	 viewBox="0 0 700 700" style="enable-background:new 0 0 700 700;" xml:space="preserve">
<style type="text/css">
	.st0{fill:none;stroke:#5EC4B6;stroke-width:7;stroke-miterlimit:10;}
	.st1{fill:#4F9E9F;}
	.st2{fill:#00AEEF;}
	.st3{fill:#6AC398;}
</style>
<g>
	<g>
		<path class="st0" d="M352.1,351.8"/>
	</g>
	<g>
		<path class="st1" d="M352.1,351.8"/>
	</g>
	<g>
		<path class="st1" d="M352.1,351.8"/>
	</g>
	<g>
		<path class="st2" d="M577.1,84.5C516.6,31.8,438,0,352.1,0C160.9,0,6,157.5,6,351.8s155,351.8,346.1,351.8
			c85.9,0,164.5-31.8,225-84.5l0,0l-20.4-24.2l0,0c-55,47.9-126.5,76.8-204.7,76.8c-173.9,0-314.8-143.2-314.8-319.9
			S178.2,31.8,352.1,31.8c78.1,0,149.6,28.9,204.7,76.8l0,0L577.1,84.5"/>
	</g>
	<g>
		<path class="st3" d="M597.4,151.3c43.4,54.9,69.5,124.6,69.5,200.5c0,75.9-26,145.6-69.4,200.5l0,0l24.4,19.9l0,0
			c47.8-60.3,76.4-137,76.4-220.4c0-83.4-28.6-160.1-76.4-220.4l0,0L597.4,151.3"/>
	</g>
</g>
</svg>
