<?xml version="1.0" encoding="utf-8"?>
<!-- Generator: Adobe Illustrator 20.0.0, SVG Export Plug-In . SVG Version: 6.00 Build 0)  -->
<svg version="1.1" id="Layer_1" xmlns="http://www.w3.org/2000/svg" xmlns:xlink="http://www.w3.org/1999/xlink" x="0px" y="0px"
	 viewBox="0 0 700 700" style="enable-background:new 0 0 700 700;" xml:space="preserve">
<style type="text/css">
	.st0{fill:none;stroke:#5EC4B6;stroke-width:7;stroke-miterlimit:10;}
	.st1{fill:#4F9E9F;}
	.st2{fill:#00AEEF;}
	.st3{fill:#6AC398;}
	.st4{fill:none;stroke:#6AC398;stroke-width:10;stroke-miterlimit:10;}
	.st5{font-family:'CenturyGothic';}
	.st6{font-size:33.7928px;}
	.st7{letter-spacing:16.4;}
</style>
<g>
	<path class="st2" d="M428.2,219.7c-21-18-48.3-28.9-78.2-28.9c-66.4,0-120.3,53.8-120.3,120.3S283.6,431.3,350,431.3
		c29.9,0,57.2-10.9,78.2-28.9l0,0l-7.1-8.3l0,0c-19.1,16.4-44,26.3-71.1,26.3c-60.4,0-109.4-49-109.4-109.4s49-109.4,109.4-109.4
		c27.2,0,52,9.9,71.1,26.3l0,0L428.2,219.7"/>
	<path class="st3" d="M435.2,242.5c15.1,18.8,24.1,42.6,24.1,68.5c0,25.9-9,49.8-24.1,68.5l0,0l8.5,6.8l0,0
		c16.6-20.6,26.5-46.8,26.5-75.4c0-28.5-9.9-54.7-26.5-75.4l0,0L435.2,242.5"/>
	<polyline class="st4" points="392.1,361 350,261 307.9,361 	"/>
</g>
<text transform="matrix(1.3425 0 0 1 231.6743 492.8291)"><tspan x="0" y="0" class="st2 st5 st6 st7">ALPH</tspan><tspan x="151.3" y="0" class="st2 st5 st6">A</tspan></text>
</svg>
